<?xml version="1.0" encoding="UTF-8" standalone="no"?>
<!DOCTYPE svg PUBLIC "-//W3C//DTD SVG 1.1//EN" "http://www.w3.org/Graphics/SVG/1.1/DTD/svg11.dtd">
<svg width="100%" height="100%" viewBox="0 0 121 54" version="1.1" xmlns="http://www.w3.org/2000/svg" xmlns:xlink="http://www.w3.org/1999/xlink" xml:space="preserve" xmlns:serif="http://www.serif.com/" style="fill-rule:evenodd;clip-rule:evenodd;stroke-linejoin:round;stroke-miterlimit:2;">
    <path d="M46.46,14.12C46.03,14.37 45.63,14.63 45.41,15.13C45.22,15.58 44.89,15.93 44.37,16.1C43.76,16.29 43.14,16.29 42.53,16.43C41.61,16.64 40.95,17.13 40.57,17.99C40.46,18.24 40.46,18.54 40.33,18.76C40.16,19.05 39.95,19.32 39.69,19.54C39.41,19.78 39.07,19.91 38.68,19.79C38.26,19.66 37.96,19.42 37.78,19.01C37.55,18.49 37.34,17.96 37.53,17.39C37.73,16.79 38.05,16.28 38.69,16.02C39.45,15.72 40.2,15.4 40.93,15.03C41.4,14.79 41.7,14.34 41.87,13.85C42.1,13.18 42.62,12.85 43.19,12.56C43.95,12.17 44.77,12.11 45.61,12.14C46.5,12.17 47.39,12 48.18,11.6C49.04,11.17 49.8,10.59 50.07,9.58C50.19,9.13 50.28,8.67 50.41,8.22C50.67,7.34 51.19,6.71 52.09,6.4C52.57,6.23 53.05,6.03 53.5,5.78C53.89,5.57 54.09,5.18 54.29,4.8C54.27,4.78 54.24,4.76 54.22,4.74C54.1,4.87 53.97,5 53.86,5.14C53.52,5.6 53.05,5.83 52.52,6.02C51.71,6.31 50.86,6.53 50.21,7.16C49.8,7.56 49.53,8.05 49.36,8.61C48.96,9.9 48.15,10.75 46.72,10.74C46,10.74 45.27,10.57 44.55,10.46C43.76,10.33 42.96,10.31 42.2,10.52C41.41,10.74 40.72,11.17 40.31,11.98C39.98,12.63 39.45,13.16 38.74,13.39C38.39,13.51 37.96,13.46 37.62,13.22C37.57,13.19 37.55,13.11 37.54,13.06C37.53,13.01 37.54,12.95 37.54,12.9C37.59,11.99 37.45,11.82 36.56,11.56C35.4,11.22 34.36,11.55 33.36,12.12C32.75,12.47 32.26,12.93 31.88,13.52C31.54,14.05 31.17,14.51 30.57,14.83C29.59,15.35 29.12,16.27 29.06,17.4C29.03,18.01 28.96,18.61 28.68,19.18C28.34,19.89 27.77,20.18 27.04,20.26C26.65,20.3 26.31,20.24 25.99,19.96C25.45,19.49 24.55,19.49 23.93,19.86C23.11,20.34 22.72,21.12 22.36,21.93C21.92,22.91 21.89,23.97 21.77,25.01C21.66,26.02 21.6,27.04 21.48,28.05C21.43,28.45 21.32,28.84 21.19,29.22C21.03,29.69 20.86,30.17 20.62,30.6C20.31,31.18 19.98,31.77 19.57,32.28C19.03,32.96 18.46,33.63 17.79,34.18C17,34.83 16.13,35.39 15.14,35.72C14.35,35.99 13.64,35.46 13.37,34.82C13.01,33.97 13.17,33.11 13.55,32.34C14.03,31.37 14.8,30.65 15.78,30.14C16.14,29.95 16.46,29.63 16.73,29.31C17.28,28.69 17.77,28.01 18.32,27.39C19.03,26.59 19.61,25.7 19.84,24.68C20.02,23.87 20.02,23 19.95,22.17C19.85,21.05 20.11,20.09 20.81,19.24C21.04,18.95 21.3,18.68 21.55,18.42C21.98,17.96 22.57,17.8 23.14,17.64C24.09,17.37 25.01,17.03 25.71,16.3C25.95,16.05 26.12,15.72 26.31,15.43C26.28,15.4 26.25,15.38 26.22,15.35C26.06,15.51 25.88,15.66 25.74,15.84C25.26,16.45 24.63,16.72 23.88,16.82C23.13,16.92 22.38,17.03 21.66,17.24C20.98,17.43 20.43,17.9 20,18.47C18.95,19.88 18.56,21.5 18.45,23.23C18.41,23.96 18.1,24.61 17.65,25.18C17.12,25.84 16.45,26.32 15.66,26.67C15.04,26.95 14.48,27.37 13.88,27.7C13.47,27.93 13.05,28.17 12.61,28.29C11.75,28.53 10.9,28.81 10.22,29.4C9.52,30 8.99,30.74 8.84,31.68C8.77,32.09 8.84,32.49 9.22,32.77C9.28,32.81 9.31,32.89 9.37,32.96C9.02,33.18 8.69,33.26 8.32,33.04C7.76,32.72 7.35,32.28 7.37,31.61C7.39,30.82 7.45,30.03 7.57,29.26C7.65,28.77 7.82,28.28 8.02,27.83C8.24,27.34 8.54,26.9 8.8,26.43C9.23,25.69 9.89,25.18 10.59,24.73C10.94,24.5 11.35,24.33 11.75,24.21C11.94,24.15 12.2,24.23 12.38,24.33C12.67,24.49 12.96,24.57 13.25,24.45C13.75,24.23 14.24,24 14.71,23.72C15.44,23.27 16.02,22.65 16.36,21.86C16.64,21.2 16.85,20.5 17.01,19.81C17.41,18.17 18.35,16.93 19.7,15.95C20.41,15.44 21.13,15.06 22.01,14.94C22.75,14.84 23.51,14.7 24.21,14.45C24.89,14.21 25.58,13.92 26.07,13.33C26.12,13.27 26.19,13.22 26.22,13.16C26.44,12.54 26.93,12.16 27.41,11.75C27.72,11.48 28.01,11.18 28.27,10.87C28.48,10.61 28.69,10.32 28.82,10.01C29.21,9.05 29.96,8.41 30.77,7.85C31.32,7.47 31.96,7.21 32.57,6.92C33.14,6.65 33.58,6.24 33.95,5.74C34.08,5.57 34.21,5.4 34.3,5.17C34.24,5.2 34.16,5.21 34.13,5.26C33.29,6.54 31.95,7.02 30.58,7.4C29.67,7.65 28.81,7.99 28.12,8.65C27.86,8.9 27.53,9.13 27.46,9.56C27.44,9.71 27.27,9.84 27.15,9.98C26.75,10.46 26.31,10.85 25.67,10.99C25.14,11.11 24.79,11.49 24.46,11.89C24.37,12 24.24,12.1 24.11,12.16C23.52,12.44 22.9,12.57 22.25,12.63C21.48,12.7 20.7,12.76 19.94,12.93C19.06,13.12 18.25,13.5 17.48,13.98C16.68,14.48 15.96,15.06 15.41,15.82C14.91,16.49 14.49,17.22 14.04,17.92C13.23,19.2 12.26,20.27 10.7,20.63C10.18,20.75 9.72,20.48 9.43,20.04C9.08,19.52 8.94,19.01 9.16,18.4C9.49,17.49 10.19,17.09 11.09,17.01C11.96,16.93 12.73,16.67 13.4,16.1C13.93,15.64 14.32,15.12 14.41,14.4C14.56,13.2 15.33,12.48 16.36,12C17.29,11.57 18.29,11.49 19.31,11.45C20.39,11.41 21.46,11.19 22.35,10.55C22.75,10.26 23.07,9.85 23.37,9.45C23.73,8.98 24.21,8.7 24.69,8.41C24.75,8.37 24.82,8.34 24.88,8.22L24.58,8.22C23.94,8.29 23.45,8.71 23.04,9.12C21.96,10.2 20.69,10.36 19.28,10.11C18.3,9.93 17.3,9.92 16.35,10.22C15.26,10.56 14.35,11.21 13.56,12.06C13.1,12.55 12.6,13.06 12.03,13.39C11.51,13.69 10.86,13.79 10.26,13.95C9.59,14.13 8.89,14.24 8.23,14.44C7.37,14.7 6.58,15.12 5.82,15.61C4.68,16.34 3.9,17.36 3.35,18.59C2.95,19.48 2.8,20.38 3.04,21.33C3.14,21.73 3.41,21.97 3.76,22.13C4.51,22.47 4.79,22.95 4.66,23.77C4.52,24.7 4.08,25.5 3.59,26.29C3.1,27.07 2.31,27.54 1.71,28.2C1.34,28.61 0.97,29.04 0.68,29.51C-0.15,30.85 -0.12,32.31 0.24,33.77C0.4,34.42 0.7,35.06 1.08,35.61C1.37,36.04 1.86,36.36 2.3,36.67C2.83,37.05 3.46,37.22 4.11,37.28C4.29,37.3 4.47,37.28 4.72,37.28C4.58,37.45 4.46,37.6 4.34,37.74C3.99,38.13 3.79,38.6 3.69,39.11C3.49,40.2 3.65,41.27 4.12,42.25C4.39,42.81 4.88,43.29 5.32,43.74C5.98,44.41 6.88,44.51 7.75,44.68C8.39,44.8 9.03,44.96 9.65,45.19C10.84,45.63 12.01,45.58 13.2,45.21C13.61,45.08 14.03,45.01 14.34,44.68C14.38,44.63 14.48,44.62 14.55,44.63C16.06,44.84 17.3,44.21 18.51,43.44C20.04,42.47 21.09,41.07 22.01,39.55C22.33,39.02 22.66,38.5 23.03,38.01C23.24,37.73 23.55,37.51 23.82,37.27C23.98,37.13 24.09,37.18 24.17,37.37C24.31,37.69 24.49,37.77 24.74,37.55C25.26,37.09 25.69,36.59 25.97,35.9C26.38,34.86 26.3,33.79 26.47,32.74C26.63,31.8 26.73,30.84 27.01,29.94C27.29,29.02 27.65,28.08 28.42,27.43C28.74,27.16 29.15,27 29.52,26.79C29.54,26.83 29.57,26.86 29.59,26.9C29.31,27.16 29.03,27.41 28.76,27.68C28.66,27.78 28.55,27.88 28.49,28.01C27.97,29.05 27.76,30.1 28.34,31.21C28.59,31.69 28.79,32.18 29.34,32.41C29.41,32.44 29.44,32.65 29.42,32.76C29.38,32.94 29.27,33.1 29.22,33.28C29.1,33.74 29.28,34.11 29.61,34.43C29.74,34.55 29.88,34.7 29.93,34.87C30.03,35.18 30.22,35.34 30.5,35.45C31.75,35.91 32.93,35.89 34.03,35.03C34.61,34.58 35.19,34.14 35.8,33.73C36.07,33.55 36.38,33.42 36.68,33.32C37.03,33.2 37.34,33.29 37.61,33.56C38.12,34.07 38.73,34.01 39.36,33.85C40.24,33.62 41.06,33.26 41.78,32.72C42.36,32.28 42.87,31.74 43.37,31.2C43.84,30.69 44.25,30.12 44.67,29.57C44.9,29.27 45.1,28.94 45.33,28.64C45.75,28.09 46.16,27.53 46.61,27C46.98,26.56 47.38,26.14 47.82,25.77C48.5,25.21 49.3,24.9 50.16,25.34C50.7,25.62 50.89,26.04 50.79,26.64C50.61,27.75 49.96,28.59 49.24,29.39C48.62,30.08 47.99,30.77 47.58,31.62C47.29,32.21 47.43,32.71 47.98,33.09C48.01,33.11 48.03,33.15 48.09,33.22C47.91,33.28 47.76,33.32 47.62,33.38C46.95,33.67 46.47,34.2 45.95,34.69C45.52,35.09 45.16,35.54 44.65,35.86C44.18,36.16 43.82,36.66 43.47,37.12C43,37.74 42.74,38.47 42.56,39.24C42.38,40.02 42.5,40.72 42.81,41.44C43.08,42.08 43,42.36 42.52,42.69C41.75,43.21 41.3,43.98 40.9,44.78C40.62,45.34 40.4,45.92 40.36,46.55C40.33,47.02 40.36,47.47 40.57,47.89C40.72,48.17 40.86,48.45 41,48.74C41.25,49.28 41.74,49.42 42.27,49.47C43.24,49.56 44.19,49.42 45.07,49.05C45.72,48.78 46.3,48.32 46.9,47.91C47.4,47.57 47.87,47.18 48.37,46.82C48.47,46.75 48.61,46.7 48.73,46.68C48.79,46.68 48.92,46.82 48.9,46.86C48.47,48.15 49.85,48.95 50.91,48.7C51.47,48.57 52.01,48.33 52.58,48.24C53.19,48.15 53.73,47.94 54.27,47.65C54.85,47.33 55.28,46.86 55.71,46.39C56.16,45.9 56.48,45.33 56.73,44.73C57.04,43.99 57.32,43.21 57.19,42.41C57.01,41.31 57.58,40.6 58.31,39.98C59,39.4 59.78,38.97 60.71,38.84C61.83,38.69 62.68,39.08 63.29,40.02C63.51,40.35 63.54,40.71 63.59,41.1C63.67,41.7 63.57,42.26 63.43,42.82C63.35,43.17 63.19,43.5 63.04,43.82C63.01,43.88 62.85,43.92 62.76,43.91C62.23,43.81 61.79,44.02 61.45,44.38C60.53,45.35 60.06,46.53 60,47.87C59.98,48.43 60.12,48.96 60.43,49.43C60.55,49.61 60.62,49.78 60.54,50.01C60.49,50.15 60.51,50.32 60.54,50.47C60.72,51.24 60.96,51.97 61.54,52.56C62.12,53.16 62.77,53.63 63.58,53.8C64.67,54.03 65.7,53.81 66.61,53.18C67.29,52.71 67.93,52.17 68.61,51.69C68.77,51.58 69.01,51.48 69.19,51.51C70.07,51.65 70.81,51.3 71.52,50.89C72.37,50.4 73.03,49.69 73.63,48.93C74.41,47.96 75.15,46.95 75.87,45.93C76.23,45.43 76.49,44.85 76.82,44.33C77.32,43.52 77.86,42.74 78.35,41.93C78.78,41.23 79.37,40.7 80.04,40.26C80.82,39.75 81.65,39.49 82.58,39.86C83,40.03 83.3,40.29 83.4,40.73C83.44,40.89 83.35,41.08 83.29,41.25C83.11,41.74 82.82,42.21 82.75,42.72C82.59,43.96 82.64,45.18 83.4,46.27C83.84,46.91 84.44,47.14 85.24,46.88C85.74,46.72 86.09,46.8 86.46,47.21C87.27,48.12 88.27,48.08 89.13,47.21C89.64,46.69 90.15,46.15 90.73,45.7C91.05,45.45 91.49,45.33 91.9,45.24C92.45,45.12 92.92,44.9 93.38,44.58C94.09,44.08 94.47,43.34 94.92,42.64C95.42,41.85 95.78,41 96.06,40.11C96.25,39.51 96.43,38.89 96.73,38.34C96.89,38.05 97.29,37.85 97.62,37.73C97.79,37.67 98,37.89 98.03,38.15C98.12,38.98 98.6,39.33 99.43,39.15C99.81,39.07 100.17,38.91 100.55,38.79C100.95,38.67 101.34,38.52 101.74,38.45C102.85,38.23 103.73,37.64 104.47,36.81C104.86,36.37 105.27,35.94 105.61,35.46C106.35,34.4 106.92,33.25 107.19,31.99C107.4,31 107.45,29.97 107.66,28.98C107.92,27.78 107.89,26.53 108.39,25.39C108.53,25.07 108.7,24.77 108.91,24.49C109.43,23.81 110.04,23.23 110.81,22.86C111.28,22.63 111.8,22.5 112.26,22.26C112.88,21.94 113.53,21.63 114.05,21.17C114.75,20.55 115.47,19.9 115.84,18.99C116.03,18.53 116.16,18.04 116.36,17.58C116.75,16.71 117.07,15.78 117.81,15.11C118.27,14.71 118.76,14.35 119.24,13.97C119.77,13.55 120.07,12.96 120.31,12.35C120.32,12.32 120.31,12.27 120.25,12.21C120.13,12.4 120,12.58 119.9,12.77C119.61,13.33 119.16,13.73 118.63,14.01C117.93,14.38 117.39,14.92 116.96,15.55C116.48,16.24 116.11,17.01 115.64,17.7C115.16,18.4 114.68,19.08 113.94,19.59C112.93,20.29 111.78,20.46 110.66,20.77C109.38,21.12 108.25,21.69 107.4,22.74C107.18,23.01 107.04,23.36 106.86,23.67C106.74,23.88 106.55,24.06 106.5,24.28C106.32,25.07 106.23,25.89 106.01,26.67C105.8,27.41 105.81,28.16 105.71,28.91C105.69,29.08 105.57,29.23 105.51,29.39C105.27,30.01 105.07,30.65 104.79,31.26C104.41,32.08 103.92,32.81 103.18,33.38C102.45,33.95 101.63,34.31 100.74,34.53C100.43,34.61 100.05,34.35 99.88,33.94C99.39,32.79 99.65,31.74 100.36,30.79C100.96,29.98 101.71,29.3 102.2,28.4C102.54,27.78 102.78,27.13 102.77,26.41C102.77,25.85 102.79,25.29 102.76,24.73C102.73,24.27 102.99,23.93 103.25,23.66C103.56,23.33 104,23.11 104.42,22.9C105.04,22.58 105.72,22.37 106.33,22.03C107.08,21.61 107.63,20.95 107.96,20.15C108.33,19.27 108.58,18.33 109.28,17.64C109.53,17.39 109.86,17.21 110.14,17C110.33,16.86 110.51,16.71 110.68,16.55C110.1,16.61 109.23,17.14 108.83,17.72C108.48,18.23 108.2,18.79 107.86,19.31C107.4,20.01 106.78,20.57 106.07,20.98C105.65,21.22 105.11,21.25 104.62,21.38C103.97,21.55 103.32,21.75 102.84,22.25C102.42,22.68 102.15,23.2 101.9,23.76C101.58,24.5 101.65,25.29 101.51,26.04C101.45,26.38 101.3,26.71 101.13,27.01C100.75,27.71 100.18,28.19 99.37,28.33C99.08,28.38 98.78,28.37 98.48,28.36C97.31,28.34 96.36,28.86 95.44,29.52C94.82,29.96 94.47,30.61 94.07,31.21C93.81,31.6 93.61,32.05 93.73,32.57C93.75,32.65 93.68,32.75 93.63,32.83C93.37,33.27 93.41,33.46 93.85,33.74C94.13,33.91 94.2,34.14 94.07,34.58C93.77,35.57 93.36,36.52 92.66,37.3C91.85,38.18 90.88,38.75 89.64,38.72C88.74,38.7 88.05,38.26 87.58,37.54C87.03,36.71 86.69,35.78 86.91,34.75C86.96,34.52 87.1,34.31 87.22,34.11C87.64,33.45 87.99,32.73 88.64,32.24C88.85,32.09 89.09,31.97 89.32,31.87C89.41,31.83 89.56,31.83 89.63,31.89C90.03,32.21 90.42,32.09 90.79,31.86C91.61,31.34 92.3,30.67 92.84,29.86C93.18,29.34 93.54,28.83 93.85,28.3C94.14,27.79 94.38,27.26 94.63,26.73C94.76,26.47 94.9,26.21 95.01,25.93C95.12,25.66 95.19,25.37 95.3,25.09C95.48,24.59 95.68,24.1 95.87,23.6C95.89,23.56 95.92,23.52 95.93,23.48C96.09,22.61 96.69,22.17 97.46,21.87C97.88,21.71 98.22,21.9 98.25,22.34C98.27,22.68 98.57,22.95 98.91,22.92C99.51,22.88 100,22.6 100.42,22.2C101.3,21.36 101.71,20.3 101.61,19.09C101.54,18.22 102.48,17.3 103.23,17.17C103.87,17.06 104.52,16.91 105.13,16.68C105.81,16.42 106.23,15.84 106.54,15.2C106.73,14.81 106.85,14.39 106.97,13.97C107.11,13.46 107.39,13.06 107.77,12.7C108.2,12.29 108.68,11.97 109.18,11.65C109.75,11.3 110.29,10.87 110.48,10.14C110.56,9.84 110.75,9.57 110.85,9.26C110.71,9.49 110.53,9.7 110.42,9.94C110.15,10.5 109.65,10.83 109.12,10.97C108.03,11.28 107.09,11.79 106.36,12.66C106.15,12.91 105.98,13.22 105.84,13.52C105.52,14.26 105,14.82 104.32,15.23C104.1,15.36 103.8,15.39 103.53,15.42C103.3,15.44 103.07,15.42 102.84,15.39C101.72,15.28 101.02,15.87 100.52,16.78C100.38,17.04 100.32,17.34 100.17,17.59C100.08,17.73 99.89,17.85 99.73,17.91C99.43,18 99.16,17.91 98.99,17.63C98.73,17.21 98.68,16.74 98.74,16.26C98.88,15.18 99.44,14.3 100.3,13.67C100.79,13.31 101.36,12.99 102.02,12.98C102.71,12.97 103.27,12.68 103.82,12.28C104.68,11.65 105.21,10.78 105.74,9.9C105.97,9.52 106.13,9.1 106.39,8.73C107.05,7.78 108.03,7.29 109.08,6.91C109.79,6.65 110.39,6.22 110.8,5.57C111.19,4.95 111.62,4.35 112.03,3.74C112.34,3.28 112.64,2.82 112.99,2.29C112.58,2.49 112.38,2.77 112.2,3.09C111.57,4.22 110.82,5.23 109.5,5.62C108.94,5.79 108.37,5.93 107.8,6.08C106.83,6.33 105.99,6.8 105.29,7.5C104.93,7.87 104.6,8.28 104.34,8.73C103.88,9.54 103.18,9.97 102.32,10.17C101.71,10.31 101.09,10.37 100.48,10.49C100.03,10.57 99.57,10.64 99.15,10.8C98.62,11.01 98.35,11.53 98.04,11.97C97.85,12.24 97.76,12.58 97.62,12.89C97.59,12.97 97.55,13.04 97.5,13.11C96.83,14.11 95.85,14.71 94.77,15.19C93.96,15.55 93.46,16.19 93.11,16.99C92.67,17.99 92.71,19.02 92.76,20.06C92.78,20.51 92.99,20.91 93.28,21.24C93.38,21.35 93.55,21.43 93.7,21.45C93.9,21.48 93.94,21.56 93.92,21.73C93.87,22.38 93.86,23.04 93.46,23.62C92.85,24.51 92.21,25.35 91.06,25.56C90.5,25.66 89.66,25.49 89.32,24.85C89.11,24.46 89.37,24.2 89.5,23.92C89.87,23.14 90.35,22.41 90.67,21.62C91.08,20.61 91.21,19.52 91.08,18.43C90.99,17.74 90.79,17.06 90.71,16.37C90.55,14.88 91.01,13.86 92.32,13.14C92.87,12.84 93.43,12.57 93.98,12.27C94.57,11.94 95.06,11.52 95.43,10.93C95.71,10.5 95.83,10.06 95.9,9.56C95.99,8.85 96.35,8.24 96.77,7.67C97.13,7.18 97.58,6.82 98.17,6.64C98.34,6.59 98.47,6.44 98.6,6.29C98.31,6.39 98.02,6.49 97.72,6.6C97.25,6.77 96.85,7.04 96.6,7.46C96.26,8.02 95.92,8.59 95.66,9.18C95.38,9.84 94.87,10.29 94.32,10.68C93.49,11.25 92.55,11.58 91.58,11.82C90.96,11.98 90.48,12.37 90.06,12.81C89.27,13.64 88.94,14.67 88.78,15.79C88.65,16.68 88.84,17.54 88.85,18.41C88.85,19.51 88.68,20.6 88.14,21.58C87.78,22.22 87.16,22.62 86.58,23.06C85.33,24.02 84.34,25.19 84.13,26.8C84.03,27.55 84.13,28.34 84.23,29.09C84.38,30.1 84.18,31.04 83.86,31.99C83.58,32.82 83.1,33.53 82.62,34.24C82.21,34.86 81.57,35.26 80.95,35.67C80.29,36.1 79.55,36.37 78.79,36.57C78.19,36.73 77.61,36.78 76.99,36.54C76.69,36.43 76.25,36.54 75.91,36.66C75.16,36.91 74.63,37.45 74.14,38.07C73.6,38.75 73.42,39.53 73.24,40.33C73.19,40.54 73.19,40.77 73.22,40.98C73.32,41.56 73.02,42.01 72.7,42.41C72.34,42.86 71.94,43.29 71.49,43.64C70.37,44.48 68.87,44.01 68.19,42.94C67.34,41.59 67,40.11 67.34,38.53C67.53,37.66 67.77,36.78 68.12,35.97C68.51,35.06 69.15,34.28 69.85,33.56C70.51,32.88 71.26,32.34 72.14,32.01C72.76,31.78 73.42,31.57 74.07,31.97C74.17,32.03 74.26,32.15 74.3,32.26C74.31,32.3 74.17,32.42 74.09,32.46C73.83,32.59 73.87,32.84 73.9,33.04C73.97,33.62 74.5,34.09 75.08,34.07C76.18,34.04 77.26,33.88 78.22,33.28C79,32.8 79.44,32.06 79.86,31.29C80.29,30.51 80.34,29.67 80.35,28.83C80.36,27.82 80.42,26.83 80.92,25.93C81.4,25.08 82.02,24.37 82.92,23.92C83.49,23.63 84.07,23.33 84.56,22.92C84.96,22.58 85.24,22.08 85.54,21.64C85.7,21.4 85.78,21.11 85.92,20.86C86.24,20.29 86.11,19.67 86.08,19.08C86.04,18.47 86.16,17.9 86.44,17.39C86.63,17.03 86.91,16.7 87.2,16.41C87.61,15.99 87.67,15.46 87.75,14.94C87.81,14.55 87.78,14.15 88.07,13.83C88.13,13.77 88.13,13.66 88.12,13.56C87.83,13.75 87.81,14.08 87.71,14.37C87.58,14.73 87.5,15.11 87.35,15.46C87.19,15.85 86.88,16.1 86.52,16.32C86.01,16.62 85.59,17 85.34,17.56C85.11,18.07 85.01,18.57 85,19.14C84.98,20.12 84.45,20.86 83.61,21.34C82.82,21.79 81.96,22.05 81.04,22.16C80.15,22.27 79.4,22.73 78.84,23.47C78.24,24.27 78.02,25.18 78.01,26.15L78.01,27.44C78.01,28.25 77.59,28.84 76.97,29.28C76.73,29.45 76.37,29.41 76.07,29.24C75.68,29.02 75.41,28.69 75.25,28.29C74.72,26.95 74.84,25.64 75.51,24.36C75.98,23.47 76.59,22.71 77.42,22.14C77.71,21.94 78.05,21.78 78.38,21.65C78.98,21.4 79.63,21.22 80.21,20.92C81.4,20.3 82.19,19.35 82.34,17.97C82.38,17.58 82.39,17.19 82.41,16.8C82.48,15.71 82.9,14.77 83.59,13.92C84.25,13.12 85.18,12.74 86.01,12.21C87.1,11.51 87.74,10.47 88.08,9.24C88.29,8.5 88.31,7.7 88.79,7.04C88.91,6.87 89.01,6.68 89.12,6.49C89.09,6.47 89.06,6.45 89.04,6.43C88.87,6.66 88.69,6.88 88.54,7.12C88.17,7.72 88.06,8.4 87.91,9.08C87.71,10 87.33,10.8 86.38,11.2C85.55,11.55 84.72,11.92 83.9,12.3C83.37,12.54 82.96,12.95 82.63,13.42C82.26,13.96 81.95,14.54 81.62,15.1C81.58,15.16 81.58,15.25 81.57,15.32C81.47,16.05 81.2,16.73 80.87,17.38C80.2,18.68 79.04,19.17 77.66,19.32C77.07,19.38 76.49,19.56 75.91,19.73C74.99,20 74.16,20.49 73.39,21.04C72.59,21.62 72.08,22.44 71.69,23.33C71.65,23.42 71.62,23.51 71.59,23.61C71.47,23.95 71.36,24.22 70.94,24.35C70.23,24.57 69.92,25.24 69.65,25.88C69.27,26.78 69,27.74 68.56,28.61C67.88,29.96 67.09,30.68 65.56,30.7C64.86,30.71 64.24,30.38 63.69,29.93C63.19,29.52 62.81,29.04 62.54,28.47C62.05,27.46 62.03,26.42 62.57,25.41C62.85,24.89 63.41,24.62 63.91,24.76C63.91,24.89 63.91,25.03 63.88,25.16C63.81,25.53 64.03,25.76 64.38,25.61C64.74,25.45 65.13,25.27 65.39,24.99C66.4,23.9 66.94,22.59 66.9,21.08C66.88,20.37 66.85,19.65 66.83,18.94C66.81,18.14 67.09,17.42 67.48,16.73C67.9,15.97 68.49,15.39 69.24,14.97C69.66,14.74 70.11,14.65 70.57,14.75C71.35,14.92 71.5,15.46 71.34,16.12C71.32,16.21 71.14,16.34 71.04,16.33C70.46,16.29 70.02,16.67 69.98,17.26C69.91,18.19 70.47,18.72 71.16,19.19C71.97,19.74 72.79,19.46 73.62,19.29C73.97,19.22 74.34,19.22 74.68,19.12C75.59,18.84 76.26,18.25 76.73,17.43C77.17,16.65 77.35,15.79 77.33,14.91C77.29,13.64 77.85,12.67 78.84,11.97C79.32,11.63 79.9,11.4 80.46,11.21C81.89,10.73 83.3,10.21 84.27,8.96C84.67,8.45 84.96,7.89 85.15,7.27C85.59,5.89 86.36,4.8 87.76,4.21C88.54,3.88 89.25,3.37 89.48,2.51C89.69,1.75 90.14,1.14 90.56,0.51C90.65,0.37 90.72,0.21 90.8,0.06C90.77,0.04 90.74,0.02 90.71,0C90.48,0.29 90.22,0.57 90.04,0.89C89.76,1.36 89.54,1.86 89.29,2.35C88.89,3.13 88.26,3.62 87.45,3.94C86.86,4.17 86.27,4.4 85.72,4.72C84.89,5.19 84.32,5.92 83.92,6.78C83.37,7.95 82.5,8.69 81.17,8.83C80.29,8.92 79.41,9.06 78.53,9.16C77.66,9.26 77.01,9.74 76.42,10.33C76.22,10.54 76.05,10.78 75.87,11.01C75.68,11.26 75.47,11.49 75.12,11.44C74.76,11.39 74.55,11.14 74.44,10.81C74.2,10.1 74.59,9.17 75.2,8.73C75.93,8.2 76.76,7.96 77.57,7.64C78.65,7.21 79.47,6.46 79.86,5.34C79.99,4.97 80.01,4.57 80.08,4.18C80.31,3.02 80.97,2.16 81.98,1.56C82.53,1.23 82.92,0.77 83.01,0.1C82.8,0.37 82.6,0.65 82.39,0.91C82.09,1.28 81.67,1.43 81.23,1.55C80.21,1.83 79.41,2.37 79.06,3.44C78.9,3.95 78.74,4.48 78.48,4.93C77.9,5.95 76.93,6.34 75.72,6.14C74.91,6.01 74.12,6.08 73.35,6.34C72.67,6.58 72.19,7.1 71.7,7.61C71.25,8.07 71.21,8.63 71.15,9.21C71.13,9.41 71.07,9.62 70.98,9.81C70.73,10.31 70.25,10.58 69.79,10.86C69.51,11.04 69.2,11.18 68.91,11.35C68.66,11.49 68.52,11.37 68.4,11.16C67.96,10.38 68.08,9.71 68.78,9.11C69.54,8.45 69.96,7.69 70,6.68C70.03,5.79 70.41,5.02 71.15,4.49C71.42,4.29 71.78,4.2 72.11,4.1C72.45,3.99 72.82,3.96 73.16,3.85C73.94,3.6 74.46,3.07 74.74,2.3C75.01,1.53 75.44,0.92 76.28,0.68C76.61,0.59 76.77,0.33 76.82,0.05C76.36,0.33 75.84,0.6 75.37,0.94C75.1,1.13 74.86,1.4 74.7,1.69C74.22,2.55 73.4,2.86 72.52,3.06C72.17,3.14 71.8,3.15 71.44,3.13C70.15,3.05 69.31,3.73 68.67,4.74C68.47,5.06 68.4,5.47 68.26,5.84C67.93,6.71 67.27,7.17 66.38,7.34C65.57,7.49 64.84,7.8 64.36,8.5C64,9.02 63.68,9.58 63.38,10.15C63.28,10.33 63.32,10.58 63.26,10.79C63.16,11.16 63.02,11.52 62.91,11.88C62.79,12.26 62.64,12.64 62.56,13.03C62.51,13.27 62.52,13.53 62.54,13.78C62.56,14.07 62.6,14.37 62.67,14.65C62.73,14.87 62.83,15.08 62.94,15.27C63.07,15.49 63.26,15.53 63.51,15.45C63.56,15.43 63.71,15.56 63.73,15.63C63.87,16.18 64,16.73 64.11,17.29C64.23,17.9 64.11,18.48 63.9,19.06C63.68,19.69 63.51,20.34 63.08,20.87C62.69,21.35 62.23,21.68 61.6,21.72C60.88,21.76 60.19,21.97 59.68,22.46C59.31,22.81 59.06,23.29 58.82,23.74C58.56,24.23 58.38,24.76 58.43,25.34C58.49,26.06 58.71,26.73 59.13,27.33C59.3,27.58 59.35,27.83 59.25,28.07C58.96,28.76 58.57,29.38 57.95,29.84C57.49,30.18 56.98,30.22 56.45,30.23C56.2,30.23 55.95,30.2 55.7,30.16C55.16,30.07 54.8,29.63 54.8,29.08C54.8,29.05 54.82,29 54.8,28.98C54.48,28.53 54.87,28.21 55.04,27.88C55.3,27.37 55.42,26.85 55.35,26.3C55.31,26.02 55.23,25.76 55.32,25.48C55.4,25.23 55.47,24.98 55.56,24.74C55.84,24.02 55.77,23.36 55.23,22.83C55.1,22.7 54.83,22.67 54.62,22.65C54.4,22.63 54.32,22.57 54.31,22.34C54.3,21.81 54.61,21.45 54.93,21.11C55.46,20.57 56.08,20.19 56.89,20.29C57.03,20.31 57.16,20.4 57.29,20.46C57.23,20.57 57.16,20.69 57.1,20.8C57.01,20.97 56.8,21.24 56.85,21.3C56.98,21.47 57.25,21.68 57.41,21.64C58.24,21.46 59.05,21.15 59.73,20.63C60.54,20 60.88,19.09 60.92,18.08C60.95,17.45 61,16.81 60.64,16.26C60.44,15.95 60.33,15.63 60.2,15.29C59.91,14.5 59.89,13.69 60.01,12.89C60.19,11.74 60.6,10.66 61.48,9.85C62.01,9.36 62.59,8.93 63.12,8.44C63.61,7.98 64.2,7.58 64.4,6.9C64.57,6.33 64.68,5.74 64.81,5.15C64.89,4.78 64.9,4.38 65.04,4.03C65.2,3.63 65.48,3.28 65.7,2.91C65.86,2.64 66.02,2.37 66.12,2.07C65.59,2.91 64.79,3.58 64.68,4.68C64.52,6.32 63.43,7.3 62.07,8.05C61.05,8.61 60.11,9.31 59.42,10.27C58.8,11.14 58.41,12.12 58.33,13.18C58.27,13.91 58.37,14.65 58.38,15.38C58.39,16.03 58.06,16.59 57.69,17.07C57.44,17.4 56.98,17.59 56.5,17.55C55.86,17.49 55.25,17.6 54.7,17.94C54.4,18.13 54.13,18.38 53.85,18.61C53.25,19.11 52.6,19.36 51.82,19.13C51.28,18.97 50.83,18.44 50.82,17.88C50.82,17.53 50.79,17.14 50.93,16.85C51.07,16.56 51.4,16.34 51.68,16.12C51.78,16.04 51.95,16.04 52.09,16.01C52.45,15.93 52.45,15.96 52.53,16.33C52.55,16.45 52.77,16.62 52.89,16.62C53.19,16.62 53.51,16.6 53.79,16.49C54.56,16.18 55.2,15.65 55.71,15C56.32,14.23 56.32,13.38 55.92,12.5C55.63,11.87 55.61,11.27 56.08,10.66C56.46,10.17 56.91,9.84 57.48,9.63C58.2,9.36 58.74,8.88 59.07,8.19C59.18,7.96 59.25,7.69 59.26,7.43C59.32,6.39 59.89,5.71 60.69,5.11C61.03,4.86 61.27,4.47 61.55,4.14C61.58,4.1 61.59,4.04 61.6,3.99C61.6,3.98 61.58,3.95 61.56,3.92C61.45,4.06 61.36,4.21 61.23,4.32C60.92,4.57 60.63,4.89 60.27,5.03C59.54,5.31 59.1,5.85 58.84,6.52C58.58,7.19 58.2,7.73 57.64,8.18C57.17,8.57 56.64,8.81 56.09,9.01C55.35,9.29 54.77,9.71 54.26,10.32C53.78,10.9 53.57,11.53 53.49,12.26C53.4,13.03 52.7,13.67 51.99,13.66C51.65,13.66 51.31,13.68 50.97,13.66C50.18,13.6 49.54,13.92 48.91,14.37C48.12,14.93 47.5,15.64 46.99,16.45C46.56,17.12 46.26,17.84 46.14,18.63C46.03,19.3 45.96,19.97 45.87,20.65C45.86,20.73 45.86,20.81 45.82,20.87C45.63,21.24 45.46,21.62 45.23,21.96C44.98,22.34 44.61,22.56 44.15,22.64C43.67,22.72 43.28,22.95 42.95,23.33C42.53,23.82 42.07,24.28 41.62,24.74C40.8,25.58 39.78,26.07 38.68,26.4C37.46,26.76 36.21,26.97 34.93,26.97C33.94,26.97 33.04,26.67 32.24,26.1C31.97,25.91 31.76,25.62 31.56,25.35C30.88,24.43 30.74,23.38 30.8,22.26C30.84,21.51 31.11,20.84 31.52,20.25C31.94,19.66 32.43,19.1 33.18,18.87C33.54,18.76 33.91,18.59 34.28,18.59C34.63,18.59 34.99,18.77 35.33,18.9C35.41,18.93 35.48,19.09 35.47,19.19C35.43,19.84 35.11,20.35 34.63,20.77C34.57,20.82 34.4,20.81 34.32,20.77C34.05,20.61 33.8,20.64 33.59,20.84C33.21,21.2 33,21.72 33.19,22.3C33.55,23.44 34.52,23.72 35.4,23.57C35.94,23.48 36.4,23.23 36.88,23C37.26,22.82 37.71,22.78 38.13,22.68C38.95,22.49 39.71,22.19 40.34,21.61C40.5,21.46 40.69,21.34 40.84,21.19C41.32,20.7 41.47,20.06 41.52,19.42C41.62,18.3 42.25,17.61 43.22,17.17C43.67,16.97 44.14,16.81 44.56,16.56C44.9,16.35 45.18,16.04 45.47,15.75C45.55,15.67 45.59,15.52 45.62,15.4C45.72,15.02 45.88,14.68 46.26,14.49C46.35,14.45 46.42,14.37 46.49,14.3C46.46,14.27 46.44,14.24 46.41,14.22L46.46,14.12Z" style="fill-rule:nonzero;"/>
</svg>
