<?xml version="1.0" encoding="UTF-8" standalone="no"?>
<!DOCTYPE svg PUBLIC "-//W3C//DTD SVG 1.1//EN" "http://www.w3.org/Graphics/SVG/1.1/DTD/svg11.dtd">
<svg width="100%" height="100%" viewBox="0 0 588 132" version="1.1" xmlns="http://www.w3.org/2000/svg" xmlns:xlink="http://www.w3.org/1999/xlink" xml:space="preserve" xmlns:serif="http://www.serif.com/" style="fill-rule:evenodd;clip-rule:evenodd;stroke-linejoin:round;stroke-miterlimit:2;">
    <path d="M176.95,49.86L176.95,45.24L181.95,45.24L181.95,34.01L187.42,34.01L187.42,49.86L176.95,49.86ZM176.95,49.86L176.95,58.67L171.47,58.67L171.47,49.86L176.95,49.86ZM82.54,79.11L88.01,79.11L88.01,75.99L98.97,75.99L98.97,83.73L82.54,83.73L82.54,79.11ZM82.54,79.11L77.06,79.11L77.06,66.12L82.54,66.12L82.54,79.11ZM91.98,111.64L81.55,111.64L81.55,107.01L91.98,107.01L91.98,111.63L97.46,111.63L97.46,116.26L91.98,116.26L91.98,111.64ZM129.92,115.42L135.4,115.42L135.4,124.23L129.92,124.23L129.92,115.42ZM124.44,110.79L118.96,110.79L118.96,96.92L124.44,96.92L124.44,110.79ZM124.44,110.79L129.92,110.79L129.92,115.42L124.44,115.42L124.44,110.79ZM173.07,37.53L173.07,32.9L178.55,32.9L178.55,37.53L173.07,37.53ZM173.07,37.53L173.07,42.15L162.34,42.15L162.34,46.07L167.59,46.07L167.59,50.7L162.34,50.7L162.34,54.62L167.59,54.62L167.59,59.25L162.34,59.25L162.34,94.06L167.81,94.06L167.81,103.31L162.34,103.31L162.34,106.05L178.77,106.05L178.77,118.18L196.62,118.18L196.62,127.43L187.8,127.43L187.8,131.56L169.84,131.56L169.84,126.93L178.66,126.93L178.66,118.18L173.29,118.18L173.29,110.68L162.34,110.68L162.34,131.9L157.35,131.9L157.35,0.63L162.34,0.63L162.34,13.55L165.99,13.55L165.99,9.9L171.47,9.9L171.47,18.18L162.34,18.18L162.34,21.63L167.59,21.63L167.59,26.26L162.34,26.26L162.34,37.53L173.07,37.53ZM133.77,17.18L128.29,17.18L128.29,8.37L133.77,8.37L133.77,17.18ZM133.77,17.18L139.25,17.18L139.25,21.8L144.72,21.8L144.72,26.43L139.24,26.43L139.24,21.81L133.77,21.81L133.77,17.18ZM133.79,103.09L128.31,103.09L128.31,98.46L133.79,98.46L133.79,103.08L144.75,103.08L144.75,107.71L133.79,107.71L133.79,103.09ZM133.79,98.46L133.79,93.83L144.75,93.83L144.75,98.46L133.79,98.46ZM135.39,83.57L135.39,75.3L144.75,75.3L144.75,79.92L140.87,79.92L140.87,83.57L135.39,83.57ZM135.39,83.57L135.39,88.19L129.92,88.19L129.92,91.15L118.96,91.15L118.96,75.99L129.92,75.99L129.92,83.57L135.39,83.57ZM82.54,58.57L62.1,58.57L62.1,67.72L67.53,67.72L67.53,82.88L62.1,82.88L62.1,99.69L67.13,99.69L67.13,104.31L62.1,104.31L62.1,110.33L67.25,110.33L67.25,120.24L62.1,120.24L62.1,131.95L57.12,131.95L57.12,0L62.1,0L62.1,12.98L77.03,12.98L77.03,4.62L82.5,4.62L82.5,9.07L92.32,9.07L92.32,4.62L82.5,4.62L82.5,0L97.88,0L97.88,9.07L92.37,9.07L92.37,13.69L97.8,13.69L97.8,18.32L92.32,18.32L92.32,13.69L82.5,13.69L82.5,17.61L77.03,17.61L77.03,17.6L62.1,17.6L62.1,33.92L67.13,33.92L67.13,46.07L77.03,46.07L77.03,50.7L62.1,50.7L62.1,53.95L82.54,53.95L82.54,58.57ZM82.54,53.95L82.54,49.32L88.01,49.32L88.01,37.8L93.49,37.8L93.49,49.32L88.02,49.32L88.02,53.95L93.49,53.95L93.49,58.58L88.02,58.58L88.02,63.2L82.54,63.2L82.54,58.57L88.01,58.57L88.01,53.95L82.54,53.95ZM106.23,38.46L100.75,38.46L100.75,33.83L106.23,33.83L106.23,38.46ZM106.23,38.46L111.71,38.46L111.71,43.09L106.23,43.09L106.23,47.71L100.75,47.71L100.75,43.08L106.23,43.08L106.23,38.46ZM224.33,13.55L224.33,0.56L229.81,0.56L229.81,13.55L224.33,13.55ZM224.33,13.55L224.33,18.18L207.89,18.18L207.89,10.43L218.85,10.43L218.85,13.55L224.33,13.55ZM207.34,25.63L207.34,30.22L201.87,30.22L201.87,25.63L196.39,25.63L196.39,21.01L201.87,21.01L201.87,25.59L207.34,25.59L207.34,20.94L218.09,20.94L218.09,33.93L212.61,33.93L212.61,25.63L207.34,25.63ZM172.23,72.31L166.76,72.31L166.76,67.68L172.24,67.68L172.24,72.3L177.71,72.3L177.71,85.99L172.24,85.99L172.24,90.61L177.71,90.61L177.71,85.99L183.19,85.99L183.19,90.61L196.84,90.61L196.84,95.24L183.19,95.24L183.19,90.62L177.71,90.62L177.71,95.24L172.23,95.24L172.23,90.62L166.76,90.62L166.76,85.99L172.23,85.99L172.23,72.31ZM206.42,110.34L206.42,114.96L200.94,114.96L200.94,110.33L206.42,110.33L206.42,105.71L211.9,105.71L211.9,110.33L217.38,110.33L217.38,119.58L211.9,119.58L211.9,110.34L206.42,110.34ZM188.85,110.33L188.85,101L194.33,101L194.33,110.33L188.85,110.33ZM188.85,110.33L188.85,114.96L183.37,114.96L183.37,110.33L188.85,110.33ZM301.69,52.44L307.17,52.44L307.17,65.43L301.69,65.43L301.69,52.44ZM301.69,52.44L296.21,52.44L296.21,55.57L285.26,55.57L285.26,47.82L301.69,47.82L301.69,52.44ZM292.25,19.93L286.77,19.93L286.77,15.3L292.25,15.3L292.25,19.92L302.68,19.92L302.68,24.55L292.25,24.55L292.25,19.93ZM254.31,16.13L248.83,16.13L248.83,7.32L254.31,7.32L254.31,16.13ZM259.79,20.76L265.27,20.76L265.27,34.63L259.79,34.63L259.79,20.76ZM254.31,16.13L259.79,16.13L259.79,20.76L254.31,20.76L254.31,16.13ZM248.83,47.98L248.83,43.36L254.31,43.36L254.31,40.4L265.27,40.4L265.27,55.57L254.31,55.57L254.31,47.98L248.83,47.98ZM250.46,114.38L255.94,114.38L255.94,123.19L250.46,123.19L250.46,114.38ZM244.98,109.75L250.46,109.75L250.46,114.38L244.98,114.38L244.98,109.75ZM244.98,109.75L244.36,109.75L244.36,118.12L244.96,118.12L244.96,122.75L244.36,122.75L244.36,126.93L244.96,126.93L244.96,131.56L244.36,131.56L244.36,131.95L239.37,131.95L239.37,0L244.36,0L244.36,23.84L250.43,23.84L250.43,28.47L244.36,28.47L244.36,33.09L250.43,33.09L250.43,28.47L255.91,28.47L255.91,33.1L250.43,33.1L250.43,37.72L244.36,37.72L244.36,47.98L248.83,47.98L248.83,56.26L244.36,56.26L244.36,60.41L249.06,60.41L249.06,65.04L244.36,65.04L244.36,67.06L244.96,67.06L244.96,79.24L244.36,79.24L244.36,84.65L244.96,84.65L244.96,89.27L244.36,89.27L244.36,95.87L244.98,95.87L244.98,95.91L252.53,95.91L252.53,91.32L258,91.32L258,100.53L244.36,100.53L244.36,105.13L244.98,105.13L244.98,109.75ZM296.21,77.61L290.73,77.61L290.73,72.98L296.21,72.98L296.21,68.36L301.69,68.36L301.69,72.98L322.57,72.98L322.57,77.61L301.69,77.61L301.69,72.99L296.21,72.99L296.21,77.61ZM301.69,77.61L301.69,82.24L296.21,82.24L296.21,93.75L290.73,93.75L290.73,82.23L296.21,82.23L296.21,77.61L301.69,77.61ZM278,88.47L278,83.84L283.48,83.84L283.48,88.47L278,88.47ZM278,93.1L272.52,93.1L272.52,88.47L278,88.47L278,93.09L283.48,93.09L283.48,97.72L278,97.72L278,93.1ZM301.73,126.93L301.73,131.56L286.35,131.56L286.35,122.48L291.86,122.48L291.86,117.86L286.43,117.86L286.43,113.23L291.9,113.23L291.9,117.86L301.72,117.86L301.72,113.94L307.2,113.94L307.2,113.95L327,113.95L327,118.57L307.2,118.57L307.2,126.93L301.73,126.93ZM291.9,122.48L291.9,126.93L301.72,126.93L301.72,122.48L291.9,122.48ZM483.9,79.11L483.9,83.73L467.47,83.73L467.47,75.99L478.42,75.99L478.42,79.11L483.9,79.11ZM483.9,79.11L483.9,66.12L489.38,66.12L489.38,79.11L483.9,79.11ZM474.46,111.64L474.46,116.26L468.98,116.26L468.98,111.63L474.46,111.63L474.46,107.01L484.89,107.01L484.89,111.64L474.46,111.64ZM436.52,115.42L436.52,124.23L431.04,124.23L431.04,115.42L436.52,115.42ZM436.52,115.42L436.52,110.79L442,110.79L442,115.42L436.52,115.42ZM442,110.79L442,96.92L447.47,96.92L447.47,110.79L442,110.79ZM432.67,17.18L432.67,21.81L427.19,21.81L427.19,17.18L432.67,17.18ZM432.67,17.18L432.67,8.37L438.15,8.37L438.15,17.18L432.67,17.18ZM432.64,103.09L432.64,107.71L427.19,107.71L427.19,109.75L426.57,109.75L426.57,118.12L427.16,118.12L427.16,122.75L426.57,122.75L426.57,126.93L427.16,126.93L427.16,131.56L426.57,131.56L426.57,131.95L421.58,131.95L421.58,0L426.57,0L426.57,23.84L427.16,23.84L427.16,28.47L426.57,28.47L426.57,31.02L440.21,31.02L440.21,40.23L434.73,40.23L434.73,35.65L427.16,35.65L427.16,37.72L426.57,37.72L426.57,51.63L427.16,51.63L427.16,56.26L426.57,56.26L426.57,66.51L431.27,66.51L431.27,71.14L427.16,71.14L427.16,75.3L431.04,75.3L431.04,83.57L426.57,83.57L426.57,84.65L427.16,84.65L427.16,89.27L426.57,89.27L426.57,95.87L427.16,95.87L427.16,93.83L432.64,93.83L432.64,98.46L427.19,98.46L427.19,100.5L426.57,100.5L426.57,105.13L427.16,105.13L427.16,103.08L432.64,103.08L432.64,98.46L438.12,98.46L438.12,103.09L432.64,103.09ZM431.04,83.57L436.52,83.57L436.52,75.99L447.47,75.99L447.47,91.15L436.52,91.15L436.52,88.19L431.04,88.19L431.04,83.57ZM466.92,91.19L466.92,99.48L472.18,99.48L472.18,104.1L456.8,104.1L456.8,99.48L461.44,99.48L461.44,91.19L455.96,91.19L455.96,86.56L461.44,86.56L461.44,91.15L466.92,91.15L466.92,86.5L477.66,86.5L477.66,99.49L472.19,99.49L472.19,91.19L466.92,91.19ZM478.42,49.32L472.94,49.32L472.94,37.8L478.42,37.8L478.42,49.32ZM478.42,49.32L483.9,49.32L483.9,53.95L478.42,53.95L478.42,49.32ZM483.9,53.95L504.78,53.95L504.78,58.58L483.9,58.58L483.9,63.2L478.42,63.2L478.42,58.58L472.94,58.58L472.94,53.95L478.42,53.95L478.42,58.57L483.9,58.57L483.9,53.95ZM460.21,43.09L454.73,43.09L454.73,38.46L460.21,38.46L460.21,43.08L465.69,43.08L465.69,47.71L460.21,47.71L460.21,43.09ZM460.21,38.46L460.21,33.83L465.69,33.83L465.69,38.46L460.21,38.46ZM355.69,82.24L366.16,82.24L366.16,98.1L360.69,98.1L360.69,86.86L355.69,86.86L355.69,82.24ZM355.69,82.24L350.21,82.24L350.21,73.43L355.69,73.43L355.69,82.24ZM403.07,118.55L408.55,118.55L408.55,131.54L403.07,131.54L403.07,118.55ZM403.07,118.55L397.59,118.55L397.59,121.67L386.63,121.67L386.63,113.92L403.07,113.92L403.07,118.55ZM393.62,86.03L388.15,86.03L388.15,81.4L393.63,81.4L393.63,86.03L404.05,86.03L404.05,90.66L393.62,90.66L393.62,86.03ZM351.81,94.57L357.29,94.57L357.29,99.2L351.81,99.2L351.81,94.57ZM351.81,94.57L341.07,94.57L341.07,105.84L346.33,105.84L346.33,110.47L341.07,110.47L341.07,113.92L350.21,113.92L350.21,122.2L344.73,122.2L344.73,118.55L341.07,118.55L341.07,131.9L336.09,131.9L336.09,0.63L341.07,0.63L341.07,21.42L352.03,21.42L352.03,13.92L357.4,13.92L357.4,5.17L348.58,5.17L348.58,0.54L366.54,0.54L366.54,4.67L375.36,4.67L375.36,13.92L357.51,13.92L357.51,26.05L341.07,26.05L341.07,28.79L346.55,28.79L346.55,38.04L341.07,38.04L341.07,72.86L346.33,72.86L346.33,77.48L341.07,77.48L341.07,81.4L346.33,81.4L346.33,86.03L341.07,86.03L341.07,89.95L351.81,89.95L351.81,94.57ZM350.97,46.12L345.49,46.12L345.49,41.49L350.97,41.49L350.97,46.11L356.45,46.11L356.45,41.49L361.93,41.49L361.93,46.12L356.45,46.12L356.45,59.8L350.97,59.8L350.97,46.12ZM350.97,41.49L350.97,36.86L356.45,36.86L356.45,41.49L350.97,41.49ZM361.93,41.49L361.93,36.86L375.58,36.86L375.58,41.49L361.93,41.49ZM350.97,59.8L350.97,64.43L345.49,64.43L345.49,59.8L350.97,59.8ZM390.64,21.77L390.64,12.52L396.11,12.52L396.11,21.77L390.64,21.77ZM385.16,21.77L379.68,21.77L379.68,17.14L385.16,17.14L385.16,21.77ZM385.16,21.77L390.64,21.77L390.64,26.4L385.16,26.4L385.16,21.77ZM367.59,21.77L362.11,21.77L362.11,17.14L367.59,17.14L367.59,21.77ZM367.59,21.77L373.07,21.77L373.07,31.11L367.59,31.11L367.59,21.77ZM214.89,46.08L214.89,50.7L209.41,50.7L209.41,46.07L214.88,46.07L214.88,41.45L225.31,41.45L225.31,46.08L214.89,46.08ZM537.25,0.63L537.25,131.9L517.49,131.9L517.49,0.63L537.25,0.63ZM548.4,0.63L548.4,131.9L542.05,131.9L542.05,0.63L548.4,0.63ZM576.6,0.63L576.6,131.9L573.42,131.9L573.42,0.63L576.6,0.63ZM587.31,0.63L587.31,131.9L584.13,131.9L584.13,0.63L587.31,0.63ZM565.09,0.63L565.09,131.9L560.39,131.9L560.39,0.63L565.09,0.63ZM19.76,0.63L19.76,131.9L0,131.9L0,0.63L19.76,0.63ZM30.92,0.63L30.92,131.9L24.57,131.9L24.57,0.63L30.92,0.63ZM50.08,0.63L50.08,131.9L46.9,131.9L46.9,0.63L50.08,0.63ZM38.6,0.63L38.6,131.9L33.9,131.9L33.9,0.63L38.6,0.63ZM85.34,22.02L85.34,26.65L65.53,26.65L65.53,22.02L85.34,22.02ZM110.07,51.41L110.07,78.04L104.59,78.04L104.59,51.41L110.07,51.41ZM77.6,99.48L77.6,116.21L72.12,116.21L72.12,99.48L77.6,99.48ZM105.71,119.82L105.71,107.01L116.14,107.01L116.14,111.63L111.18,111.63L111.18,119.82L105.71,119.82ZM125.49,119.57L125.49,128.38L120.01,128.38L120.01,119.57L125.49,119.57ZM81.55,126.93L81.55,122.87L91.98,122.87L91.98,127.49L83.21,127.49L83.21,131.56L65.26,131.56L65.26,126.93L81.55,126.93ZM83.06,94.84L83.06,99.47L77.58,99.47L77.58,94.84L83.06,94.84ZM76.98,87.19L76.98,91.82L71.5,91.82L71.5,87.19L76.98,87.19ZM144.75,87.19L144.75,91.82L139.27,91.82L139.27,87.19L144.75,87.19ZM131.7,21.8L131.7,26.43L126.22,26.43L126.22,21.8L131.7,21.8ZM144.75,120.18L144.75,124.81L139.27,124.81L139.27,120.18L144.75,120.18ZM144.75,111.63L144.75,116.26L139.27,116.26L139.27,111.63L144.75,111.63ZM140.64,66.51L140.64,71.14L135.16,71.14L135.16,66.51L140.64,66.51ZM124.44,66.1L124.44,70.73L118.96,70.73L118.96,66.1L124.44,66.1ZM88.77,32.32L88.77,19.33L99.52,19.33L99.52,24.02L94.25,24.02L94.25,32.32L88.77,32.32ZM115.94,93.46L115.94,98.09L110.46,98.09L110.46,93.46L115.94,93.46ZM101.05,122.87L101.05,127.5L95.57,127.5L95.57,122.87L101.05,122.87ZM98.97,66.1L98.97,70.73L93.49,70.73L93.49,66.1L98.97,66.1ZM139.25,52.31L139.25,56.94L133.77,56.94L133.77,52.31L139.25,52.31ZM144.75,42.28L144.75,46.91L139.27,46.91L139.27,42.28L144.75,42.28ZM144.75,8.8L144.75,13.43L139.27,13.43L139.27,8.8L144.75,8.8ZM144.75,0L144.75,4.63L139.27,4.63L139.27,0L144.75,0ZM134.44,0L134.44,4.63L128.96,4.63L128.96,0L134.44,0ZM72.61,0L72.61,4.63L67.13,4.63L67.13,0L72.61,0ZM144.75,52.31L144.75,64.5L139.27,64.5L139.27,52.31L144.75,52.31ZM94.25,99.49L88.77,99.49L88.77,86.5L99.52,86.5L99.52,91.15L105,91.15L105,86.56L110.47,86.56L110.47,91.19L105,91.19L105,99.48L109.63,99.48L109.63,104.1L94.25,104.1L94.25,99.49ZM94.25,99.48L99.52,99.48L99.52,91.19L94.25,91.19L94.25,99.48ZM114.25,19.69L103.3,19.69L103.3,0L123.11,0L123.11,4.62L114.25,4.62L114.25,19.69ZM119.73,19.85L119.73,35.01L114.25,35.01L114.25,19.85L119.73,19.85ZM202.27,0.54L202.27,12.48L196.79,12.48L196.79,0.54L202.27,0.54ZM195.68,54.27L195.68,46.07L190.72,46.07L190.72,41.45L201.16,41.45L201.16,54.27L195.68,54.27ZM201.16,57.72L201.16,66.53L195.68,66.53L195.68,57.72L201.16,57.72ZM186.85,54.01L186.85,62.82L181.37,62.82L181.37,54.01L186.85,54.01ZM225.32,53.95L225.32,58.57L230.56,58.57L230.56,63.2L210.75,63.2L210.75,58.57L214.88,58.57L214.88,53.95L225.32,53.95ZM229.5,29.29L229.5,33.92L224.02,33.92L224.02,29.29L229.5,29.29ZM178.55,25.63L178.55,30.22L173.07,30.22L173.07,21.01L188.16,21.01L188.16,25.63L178.55,25.63ZM131.7,35.65L131.7,40.23L126.22,40.23L126.22,31.02L141.31,31.02L141.31,31.05L144.72,31.05L144.72,35.68L139.24,35.68L139.24,35.65L131.7,35.65ZM171.7,0.96L171.7,5.59L166.22,5.59L166.22,0.96L171.7,0.96ZM196.4,27.91L196.4,32.54L190.92,32.54L190.92,27.91L196.4,27.91ZM213.37,0.54L213.37,5.17L207.89,5.17L207.89,0.54L213.37,0.54ZM207.35,34.49L207.35,39.12L201.87,39.12L201.87,34.49L207.35,34.49ZM81.83,31.05L81.83,35.68L76.35,35.68L76.35,31.05L81.83,31.05ZM83.79,38.46L83.79,43.09L78.31,43.09L78.31,38.46L83.79,38.46ZM187.9,16.12L176.95,16.12L176.95,0.96L187.9,0.96L187.9,16.12ZM127.18,59.21L116.22,59.21L116.22,44.05L121.7,44.05L121.7,49.63L127.18,49.63L127.18,59.21ZM226.23,64.62L226.23,81.35L220.75,81.35L220.75,64.62L226.23,64.62ZM215.52,69.32L215.52,86.05L210.04,86.05L210.04,69.32L215.52,69.32ZM218.64,99.69L213.08,99.69L213.08,95.24L203.26,95.24L203.26,90.61L218.64,90.61L218.64,99.69ZM218.71,108.94L218.71,99.69L224.19,99.69L224.19,108.94L218.71,108.94ZM193.12,81.34L182.16,81.34L182.16,64.62L187.64,64.62L187.64,76.72L193.12,76.72L193.12,81.34ZM205.11,99.69L205.11,104.32L199.63,104.32L199.63,99.69L205.11,99.69ZM205.11,71.14L205.11,75.77L199.63,75.77L199.63,71.14L205.11,71.14ZM198.68,81.26L198.68,85.89L193.2,85.89L193.2,81.26L198.68,81.26ZM215.27,126.93L215.27,122.31L220.75,122.31L220.75,131.56L201.78,131.56L201.78,126.93L215.27,126.93ZM318.69,104.9L318.69,109.53L298.88,109.53L298.88,104.9L318.69,104.9ZM274.15,80.15L274.15,53.51L279.63,53.51L279.63,80.15L274.15,80.15ZM312.11,15.35L312.11,32.08L306.63,32.08L306.63,15.35L312.11,15.35ZM278.52,11.73L278.52,24.55L268.09,24.55L268.09,19.92L273.04,19.92L273.04,11.73L278.52,11.73ZM264.22,3.17L264.22,11.98L258.74,11.98L258.74,3.17L264.22,3.17ZM302.68,4.62L302.68,8.68L292.25,8.68L292.25,4.06L301.01,4.06L301.01,0L318.97,0L318.97,4.62L302.68,4.62ZM306.64,32.09L306.64,36.72L301.16,36.72L301.16,32.09L306.64,32.09ZM312.73,39.74L312.73,44.37L307.25,44.37L307.25,39.74L312.73,39.74ZM258.01,105.13L258.01,109.76L252.53,109.76L252.53,105.13L258.01,105.13ZM265.27,60.83L265.27,65.46L259.79,65.46L259.79,60.83L265.27,60.83ZM295.45,45.06L284.71,45.05L284.71,40.4L279.23,40.4L279.23,44.99L273.75,44.99L273.75,40.36L279.23,40.36L279.23,32.07L274.59,32.07L274.59,27.45L289.97,27.45L289.97,32.07L284.71,32.07L284.71,40.36L289.98,40.36L289.98,32.07L295.45,32.07L295.45,45.06ZM295.45,99.24L295.45,112.22L284.71,112.22L284.71,107.53L289.98,107.53L289.98,99.24L295.45,99.24ZM273.77,33.47L273.77,38.1L268.29,38.1L268.29,33.47L273.77,33.47ZM288.66,4.06L288.66,8.69L283.18,8.69L283.18,4.06L288.66,4.06ZM290.74,60.83L290.74,65.46L285.26,65.46L285.26,60.83L290.74,60.83ZM250.46,74.62L250.46,79.25L244.98,79.25L244.98,74.62L250.46,74.62ZM255.27,126.93L255.27,131.56L249.79,131.56L249.79,126.93L255.27,126.93ZM317.1,126.93L317.1,131.56L311.62,131.56L311.62,126.93L317.1,126.93ZM322.17,48.68L322.17,63.84L316.69,63.84L316.69,48.68L322.17,48.68ZM269.97,111.86L280.93,111.86L280.93,131.56L261.12,131.56L261.12,126.93L269.97,126.93L269.97,111.86ZM269.98,96.54L269.98,111.7L264.5,111.7L264.5,96.54L269.98,96.54ZM307.88,95.87L307.88,100.5L302.4,100.5L302.4,95.87L307.88,95.87ZM305.92,88.47L305.92,93.1L300.44,93.1L300.44,88.47L305.92,88.47ZM257.05,72.34L268,72.34L268,87.5L262.53,87.5L262.53,81.92L257.05,81.92L257.05,72.34ZM322.46,11.31L322.46,21.22L316.98,21.22L316.98,11.31L322.46,11.31ZM322.58,27.24L322.58,31.87L317.1,31.87L317.1,27.24L322.58,27.24ZM500.9,27.79L500.9,32.42L481.09,32.42L481.09,27.79L500.9,27.79ZM461.84,51.41L461.84,78.04L456.36,78.04L456.36,51.41L461.84,51.41ZM494.32,99.48L494.32,116.21L488.84,116.21L488.84,99.48L494.32,99.48ZM450.3,111.63L450.3,107.01L460.73,107.01L460.73,119.82L455.25,119.82L455.25,111.63L450.3,111.63ZM446.42,119.57L446.42,128.38L440.94,128.38L440.94,119.57L446.42,119.57ZM484.89,122.87L484.89,126.93L501.18,126.93L501.18,131.56L483.22,131.56L483.22,127.49L474.46,127.49L474.46,122.87L484.89,122.87ZM488.85,94.84L488.85,99.47L483.37,99.47L483.37,94.84L488.85,94.84ZM494.94,87.19L494.94,91.82L489.46,91.82L489.46,87.19L494.94,87.19ZM502.05,94.84L502.05,99.47L496.57,99.47L496.57,94.84L502.05,94.84ZM440.21,21.8L440.21,26.43L434.73,26.43L434.73,21.8L440.21,21.8ZM447.48,66.1L447.48,70.73L442,70.73L442,66.1L447.48,66.1ZM472.19,32.32L472.19,24.02L466.92,24.02L466.92,19.33L477.66,19.33L477.66,32.32L472.19,32.32ZM455.97,93.46L455.97,98.09L450.49,98.09L450.49,93.46L455.97,93.46ZM470.87,122.87L470.87,127.5L465.39,127.5L465.39,122.87L470.87,122.87ZM472.95,66.1L472.95,70.73L467.47,70.73L467.47,66.1L472.95,66.1ZM432.67,52.31L432.67,56.94L427.19,56.94L427.19,52.31L432.67,52.31ZM437.47,0L437.47,4.63L431.99,4.63L431.99,0L437.47,0ZM499.31,0L499.31,4.63L493.83,4.63L493.83,0L499.31,0ZM499.31,10.65L499.31,23.64L493.83,23.64L493.83,10.65L499.31,10.65ZM474.06,9.07L468.56,9.07L468.56,0L483.94,0L483.94,4.62L474.11,4.62L474.11,9.07L484.6,9.07L484.6,13.69L474.11,13.69L474.11,18.32L468.63,18.32L468.63,13.69L474.06,13.69L474.06,9.07ZM500.9,63.64L500.9,78.8L495.42,78.8L495.42,63.64L500.9,63.64ZM452.18,19.69L452.18,4.62L443.33,4.62L443.33,0L463.14,0L463.14,19.69L452.18,19.69ZM452.18,19.85L452.18,35.01L446.7,35.01L446.7,19.85L452.18,19.85ZM488.13,38.46L488.13,43.09L482.65,43.09L482.65,38.46L488.13,38.46ZM444.74,49.63L444.74,44.05L450.21,44.05L450.21,59.21L439.26,59.21L439.26,49.63L444.74,49.63ZM504.67,111.31L504.67,121.22L499.19,121.22L499.19,111.31L504.67,111.31ZM497.68,45.4L497.68,50.03L492.2,50.03L492.2,45.4L497.68,45.4ZM389.49,73.53L389.49,68.91L409.3,68.91L409.3,73.53L404.06,73.53L404.06,78.16L393.62,78.16L393.62,73.53L389.49,73.53ZM381.01,119.62L381.01,131.56L375.53,131.56L375.53,119.62L381.01,119.62ZM379.9,77.83L379.9,90.65L369.46,90.65L369.46,86.03L374.42,86.03L374.42,77.83L379.9,77.83ZM379.9,65.57L379.9,74.38L374.42,74.38L374.42,65.57L379.9,65.57ZM365.59,69.28L365.59,78.09L360.11,78.09L360.11,69.28L365.59,69.28ZM408.24,98.19L408.24,102.82L402.76,102.82L402.76,98.19L408.24,98.19ZM357.29,101.88L357.29,106.47L366.9,106.47L366.9,111.09L351.81,111.09L351.81,101.88L357.29,101.88ZM350.44,126.52L350.44,131.15L344.96,131.15L344.96,126.52L350.44,126.52ZM396.83,111.16L386.08,111.16L386.08,106.51L380.61,106.51L380.61,111.09L375.13,111.09L375.13,106.47L380.61,106.47L380.61,101.88L386.08,101.88L386.08,106.47L391.35,106.47L391.35,98.17L396.83,98.17L396.83,111.16ZM375.14,99.57L375.14,104.2L369.66,104.2L369.66,99.57L375.14,99.57ZM392.11,126.93L392.11,131.56L386.63,131.56L386.63,126.93L392.11,126.93ZM386.09,92.98L386.09,97.61L380.61,97.61L380.61,92.98L386.09,92.98ZM355.69,115.98L366.64,115.98L366.64,131.15L355.69,131.15L355.69,115.98ZM366.38,55.39L366.38,67.49L360.9,67.49L360.9,50.76L371.86,50.76L371.86,55.39L366.38,55.39ZM404.97,50.76L404.97,67.49L399.49,67.49L399.49,50.76L404.97,50.76ZM394.26,46.05L394.26,62.78L388.78,62.78L388.78,46.05L394.26,46.05ZM397.38,32.42L397.38,41.49L382,41.49L382,36.86L391.82,36.86L391.82,32.42L397.38,32.42ZM397.45,32.42L397.45,23.17L402.93,23.17L402.93,32.42L397.45,32.42ZM383.85,27.79L383.85,32.42L378.37,32.42L378.37,27.79L383.85,27.79ZM383.85,56.34L383.85,60.97L378.37,60.97L378.37,56.34L383.85,56.34ZM377.42,46.22L377.42,50.85L371.94,50.85L371.94,46.22L377.42,46.22ZM394.01,9.79L394.01,5.17L380.52,5.17L380.52,0.54L399.49,0.54L399.49,9.79L394.01,9.79Z"/>
</svg>
